<svg width="100" height="100" viewBox="0 0 100 100" fill="none" xmlns="http://www.w3.org/2000/svg">
<mask id="path-1-inside-1_629_1044" fill="white">
<ellipse cx="49.9861" cy="49.988" rx="16.7792" ry="36.8171" transform="rotate(-120 49.9861 49.988)"/>
</mask>
<path d="M41.5965 35.4568C44.2145 34.1764 46.8863 33.0296 49.5975 32.0359C59.716 28.4194 74.5495 25.1238 79.9221 32.7044C82.2637 37.5198 77.7854 44.3629 73.3062 49.1765C68.6101 54.202 62.925 58.4159 56.8757 61.9211C56.8757 61.9211 56.8757 61.9211 56.8757 61.9211C50.8155 65.4074 44.3235 68.2238 37.6233 69.778C31.215 71.2504 23.0495 71.7071 20.0501 67.2715C16.1714 58.8284 26.4422 47.63 34.6335 40.6754C36.8496 38.8243 39.1787 37.0838 41.5965 35.4568C38.9786 36.7375 36.4233 38.1696 33.9585 39.7567C29.0393 42.9412 24.4019 46.709 20.5852 51.3951C17.107 55.9509 12.7407 62.2306 16.153 69.5215C21.8759 77.956 31.6342 76.3701 38.7781 75.2832C46.3092 73.8031 53.3511 70.8658 59.8757 67.1173C59.8757 67.1173 59.8757 67.1173 59.8757 67.1173C66.3843 63.3411 72.4491 58.7113 77.4964 52.9292C82.0096 47.2858 88.2622 39.6279 83.8192 30.4544C79.2113 23.8538 71.5897 24.4954 65.9052 25.2296C59.9385 26.1919 54.3567 28.3242 49.1393 30.9921C46.5325 32.3331 44.0146 33.83 41.5965 35.4568Z" fill="white" mask="url(#path-1-inside-1_629_1044)"/>
<path d="M84.0876 42.0898C84.0876 44.299 82.2968 46.0898 80.0876 46.0898C77.8785 46.0898 76.0876 44.299 76.0876 42.0898C76.0876 39.8807 77.8785 38.0898 80.0876 38.0898C82.2968 38.0898 84.0876 39.8807 84.0876 42.0898Z" fill="#77F8FF"/>
<path d="M50.3821 44.1852L50.7084 44.6293L51.2297 44.4502L71.9861 37.3311L55.4431 51.7479L55.0269 52.1111L55.2493 52.6154L66.7501 78.7445L49.873 55.7194L49.5466 55.2752L49.0248 55.4535L28.2662 62.5728L44.8115 48.1557L45.2264 47.7944L45.0058 47.2892L33.7238 21.5411L50.3821 44.1852Z" stroke="white" stroke-width="1.5"/>
</svg>
